<svg width="28" height="28" viewBox="0 0 28 28" fill="none" xmlns="http://www.w3.org/2000/svg">
<path fill-rule="evenodd" clip-rule="evenodd" d="M13.3388 19.2082L14.7419 17.8052L17.805 14.742L19.2081 13.3389C20.6446 11.9025 21.3628 11.1843 21.1932 10.4123C21.0237 9.64039 20.0706 9.28925 18.1644 8.58697L11.807 6.24478C8.00441 4.84381 6.10309 4.14332 5.12314 5.12327C4.1432 6.10321 4.84369 8.00453 6.24466 11.8072L8.58685 18.1645C9.28913 20.0707 9.64026 21.0238 10.4122 21.1934C11.1842 21.3629 11.9024 20.6447 13.3388 19.2082Z" fill="#121212"/>
<path opacity="0.5" d="M14.7417 17.8054L19.3364 22.4001C19.8121 22.8759 20.05 23.1137 20.3154 23.2236C20.6692 23.3702 21.0667 23.3702 21.4205 23.2236C21.6859 23.1137 21.9238 22.8759 22.3995 22.4001C22.8753 21.9244 23.1131 21.6865 23.223 21.4211C23.3696 21.0673 23.3696 20.6698 23.223 20.316C23.1131 20.0506 22.8753 19.8127 22.3995 19.337L17.8048 14.7423L14.7417 17.8054Z" fill="#121212"/>
</svg>
